<svg width="14" height="14" viewBox="0 0 14 14" fill="none" xmlns="http://www.w3.org/2000/svg">
<path d="M2.81641 3.39616L2.81641 11.9795C2.81641 12.1176 2.92834 12.2295 3.06641 12.2295L10.6914 12.2295C10.8295 12.2295 10.9414 12.1176 10.9414 11.9795L10.9414 3.39616C10.9414 2.29159 10.046 1.39616 8.94141 1.39616H4.81641C3.71184 1.39616 2.81641 2.29159 2.81641 3.39616Z" stroke="#767676"/>
<path d="M5.79556 12.2301V10.5635C5.79556 10.2873 6.01942 10.0635 6.29556 10.0635H7.46223C7.73837 10.0635 7.96223 10.2873 7.96223 10.5635V12.2301" stroke="#767676"/>
<path d="M4.57681 3.22116V3.90449C4.57681 4.01495 4.66636 4.10449 4.77681 4.10449H5.73098C5.84144 4.10449 5.93098 4.01495 5.93098 3.90449V3.22116C5.93098 3.1107 5.84144 3.02116 5.73098 3.02116H4.77681C4.66636 3.02116 4.57681 3.1107 4.57681 3.22116Z" fill="#767676"/>
<path d="M4.57681 5.38815V6.07148C4.57681 6.18194 4.66636 6.27148 4.77681 6.27148H5.73098C5.84144 6.27148 5.93098 6.18194 5.93098 6.07148V5.38815C5.93098 5.27769 5.84144 5.18815 5.73098 5.18815H4.77681C4.66636 5.18815 4.57681 5.27769 4.57681 5.38815Z" fill="#767676"/>
<path d="M4.57681 7.55514V8.23848C4.57681 8.34893 4.66636 8.43848 4.77681 8.43848H5.73098C5.84144 8.43848 5.93098 8.34893 5.93098 8.23848V7.55514C5.93098 7.44469 5.84144 7.35514 5.73098 7.35514H4.77681C4.66636 7.35514 4.57681 7.44469 4.57681 7.55514Z" fill="#767676"/>
<path d="M7.82681 3.22116V3.90449C7.82681 4.01495 7.91636 4.10449 8.02681 4.10449H8.98098C9.09144 4.10449 9.18098 4.01495 9.18098 3.90449V3.22116C9.18098 3.1107 9.09144 3.02116 8.98098 3.02116H8.02681C7.91636 3.02116 7.82681 3.1107 7.82681 3.22116Z" fill="#767676"/>
<path d="M7.82681 5.38815V6.07148C7.82681 6.18194 7.91636 6.27148 8.02681 6.27148H8.98098C9.09144 6.27148 9.18098 6.18194 9.18098 6.07148V5.38815C9.18098 5.27769 9.09144 5.18815 8.98098 5.18815H8.02681C7.91636 5.18815 7.82681 5.27769 7.82681 5.38815Z" fill="#767676"/>
<path d="M7.82681 7.55514V8.23848C7.82681 8.34893 7.91636 8.43848 8.02681 8.43848H8.98098C9.09144 8.43848 9.18098 8.34893 9.18098 8.23848V7.55514C9.18098 7.44469 9.09144 7.35514 8.98098 7.35514H8.02681C7.91636 7.35514 7.82681 7.44469 7.82681 7.55514Z" fill="#767676"/>
</svg>
