<svg width="13" height="13" viewBox="0 0 13 13" fill="none" xmlns="http://www.w3.org/2000/svg">
<path fill-rule="evenodd" clip-rule="evenodd" d="M8.5843 1.66137C8.56138 1.4911 8.41655 1.35986 8.24131 1.35986C8.05013 1.35986 7.89516 1.51604 7.89516 1.7087V2.09437H4.85907V1.7087L4.85591 1.66137C4.83299 1.4911 4.68816 1.35986 4.51292 1.35986C4.32174 1.35986 4.16676 1.51604 4.16676 1.7087V2.10303C2.74827 2.20073 1.875 3.11982 1.875 4.60276V8.81189C1.875 10.4035 2.85417 11.3599 4.42313 11.3599H8.32682C9.89765 11.3599 10.875 10.4195 10.875 8.84708V4.60276C10.8795 3.1193 10.009 2.20046 8.58746 2.10299V1.7087L8.5843 1.66137ZM7.89516 2.79205V3.2393L7.89832 3.28663C7.92124 3.4569 8.06606 3.58813 8.24131 3.58813C8.43248 3.58813 8.58746 3.43195 8.58746 3.2393V2.80236C9.62174 2.88841 10.186 3.51123 10.1827 4.60169V4.8037H2.5673V4.60276C2.5673 3.51299 3.13463 2.88885 4.16676 2.80243V3.2393L4.16992 3.28663C4.19284 3.4569 4.33767 3.58813 4.51292 3.58813C4.70409 3.58813 4.85907 3.43195 4.85907 3.2393V2.79205H7.89516ZM2.5673 5.50138V8.81189C2.5673 10.0132 3.23176 10.6622 4.42313 10.6622H8.32682C9.52228 10.6622 10.1827 10.0268 10.1827 8.84708L10.1827 5.50138H2.5673ZM8.77559 6.96902C8.77559 6.77636 8.62061 6.62018 8.42944 6.62018L8.37819 6.62337C8.20923 6.64647 8.07901 6.79242 8.07901 6.96902C8.07901 7.16168 8.23399 7.31786 8.42944 7.31786L8.47641 7.31467C8.64537 7.29158 8.77559 7.14562 8.77559 6.96902ZM6.38139 6.62018C6.57256 6.62018 6.72754 6.77636 6.72754 6.96902C6.72754 7.14562 6.59732 7.29158 6.42836 7.31467L6.38139 7.31786C6.18594 7.31786 6.03096 7.16168 6.03096 6.96902C6.03096 6.79242 6.16118 6.64647 6.33014 6.62337L6.38139 6.62018ZM4.67521 6.96902C4.67521 6.77636 4.52024 6.62018 4.32906 6.62018L4.27782 6.62337C4.10886 6.64647 3.97863 6.79242 3.97863 6.96902C3.97863 7.16168 4.13361 7.31786 4.32479 7.31786L4.37603 7.31467C4.54499 7.29158 4.67521 7.14562 4.67521 6.96902ZM8.42944 8.42787C8.62061 8.42787 8.77559 8.58405 8.77559 8.77671C8.77559 8.95331 8.64537 9.09926 8.47641 9.12236L8.42944 9.12555C8.23399 9.12555 8.07901 8.96937 8.07901 8.77671C8.07901 8.60011 8.20923 8.45415 8.37819 8.43106L8.42944 8.42787ZM6.72754 8.77671C6.72754 8.58405 6.57256 8.42787 6.38139 8.42787L6.33014 8.43106C6.16118 8.45415 6.03096 8.60011 6.03096 8.77671C6.03096 8.96937 6.18594 9.12555 6.38139 9.12555L6.42836 9.12236C6.59732 9.09926 6.72754 8.95331 6.72754 8.77671ZM4.32906 8.42787C4.52024 8.42787 4.67521 8.58405 4.67521 8.77671C4.67521 8.95331 4.54499 9.09926 4.37603 9.12236L4.32479 9.12555C4.13361 9.12555 3.97863 8.96937 3.97863 8.77671C3.97863 8.60011 4.10886 8.45415 4.27782 8.43106L4.32906 8.42787Z" fill="#F87171"/>
</svg>
