<svg width="13" height="13" viewBox="0 0 13 13" fill="none" xmlns="http://www.w3.org/2000/svg">
<path fill-rule="evenodd" clip-rule="evenodd" d="M3.41058 0.470215C3.65305 0.470215 3.8496 0.666772 3.8496 0.909238V3.38078C3.8496 3.62324 3.65305 3.8198 3.41058 3.8198C3.16812 3.8198 2.97156 3.62324 2.97156 3.38078V0.909238C2.97156 0.666772 3.16812 0.470215 3.41058 0.470215Z" fill="#3D3D3D"/>
<path fill-rule="evenodd" clip-rule="evenodd" d="M9.58938 0.470215C9.83185 0.470215 10.0284 0.666772 10.0284 0.909238V3.38078C10.0284 3.62324 9.83185 3.8198 9.58938 3.8198C9.34692 3.8198 9.15036 3.62324 9.15036 3.38078V0.909238C9.15036 0.666772 9.34692 0.470215 9.58938 0.470215Z" fill="#3D3D3D"/>
<path fill-rule="evenodd" clip-rule="evenodd" d="M10.8902 2.58361C11.2943 2.58361 11.6219 2.91121 11.6219 3.31532V10.86C11.6219 11.2641 11.2943 11.5917 10.8902 11.5917H2.10975C1.70564 11.5917 1.37804 11.2641 1.37804 10.86V3.31532C1.37804 2.91121 1.70564 2.58361 2.10975 2.58361H10.8902ZM12.5 3.31532C12.5 2.42628 11.7793 1.70557 10.8902 1.70557H2.10975C1.2207 1.70557 0.499993 2.42628 0.499993 3.31532V10.86C0.499993 11.7491 1.2207 12.4698 2.10975 12.4698H10.8902C11.7793 12.4698 12.5 11.7491 12.5 10.86V3.31532Z" fill="#3D3D3D"/>
<path d="M3.41055 6.47063C3.7518 6.47063 4.02843 6.194 4.02843 5.85275C4.02843 5.5115 3.7518 5.23486 3.41055 5.23486C3.0693 5.23486 2.79266 5.5115 2.79266 5.85275C2.79266 6.194 3.0693 6.47063 3.41055 6.47063Z" fill="#3D3D3D"/>
<path d="M6.50003 6.47063C6.84127 6.47063 7.11791 6.194 7.11791 5.85275C7.11791 5.5115 6.84127 5.23486 6.50003 5.23486C6.15878 5.23486 5.88214 5.5115 5.88214 5.85275C5.88214 6.194 6.15878 6.47063 6.50003 6.47063Z" fill="#3D3D3D"/>
<path d="M9.58944 6.47063C9.93069 6.47063 10.2073 6.194 10.2073 5.85275C10.2073 5.5115 9.93069 5.23486 9.58944 5.23486C9.24819 5.23486 8.97156 5.5115 8.97156 5.85275C8.97156 6.194 9.24819 6.47063 9.58944 6.47063Z" fill="#3D3D3D"/>
<path d="M3.41055 10.1782C3.7518 10.1782 4.02843 9.90152 4.02843 9.56027C4.02843 9.21902 3.7518 8.94238 3.41055 8.94238C3.0693 8.94238 2.79266 9.21902 2.79266 9.56027C2.79266 9.90152 3.0693 10.1782 3.41055 10.1782Z" fill="#3D3D3D"/>
<path d="M6.50003 10.1782C6.84127 10.1782 7.11791 9.90152 7.11791 9.56027C7.11791 9.21902 6.84127 8.94238 6.50003 8.94238C6.15878 8.94238 5.88214 9.21902 5.88214 9.56027C5.88214 9.90152 6.15878 10.1782 6.50003 10.1782Z" fill="#3D3D3D"/>
<path d="M9.58944 10.1782C9.93069 10.1782 10.2073 9.90152 10.2073 9.56027C10.2073 9.21902 9.93069 8.94238 9.58944 8.94238C9.24819 8.94238 8.97156 9.21902 8.97156 9.56027C8.97156 9.90152 9.24819 10.1782 9.58944 10.1782Z" fill="#3D3D3D"/>
</svg>
