<svg width="7" height="12" viewBox="0 0 7 12" fill="none" xmlns="http://www.w3.org/2000/svg">
<path d="M3.04914 11.4816V0.648438H3.74314V11.4816H3.04914ZM5.22 4.00841C5.17487 3.60781 4.98867 3.29748 4.66142 3.07744C4.33417 2.85457 3.92228 2.74313 3.42576 2.74313C3.0703 2.74313 2.76279 2.79955 2.50325 2.9124C2.2437 3.02242 2.04199 3.17477 1.89812 3.36942C1.75706 3.56126 1.68653 3.7799 1.68653 4.02534C1.68653 4.23128 1.73449 4.40901 1.83041 4.55853C1.92915 4.70805 2.05751 4.83359 2.21549 4.93516C2.3763 5.03389 2.54839 5.11712 2.73176 5.18483C2.91513 5.24971 3.09146 5.30331 3.26072 5.34563L4.10706 5.56568C4.38354 5.63339 4.66706 5.72507 4.95764 5.84074C5.24821 5.95641 5.51763 6.10875 5.76589 6.29776C6.01415 6.48678 6.21445 6.72093 6.3668 7.00023C6.52196 7.27952 6.59954 7.61382 6.59954 8.00314C6.59954 8.49402 6.47259 8.92988 6.21869 9.31074C5.9676 9.69159 5.60227 9.99204 5.12267 10.2121C4.6459 10.4321 4.06898 10.5422 3.39191 10.5422C2.74305 10.5422 2.18164 10.4392 1.70769 10.2332C1.23374 10.0273 0.862758 9.73532 0.59475 9.35729C0.326742 8.97643 0.178632 8.52505 0.150421 8.00314H1.46225C1.48764 8.31629 1.5892 8.57724 1.76693 8.78601C1.94749 8.99195 2.17741 9.1457 2.4567 9.24726C2.73881 9.346 3.04773 9.39537 3.38344 9.39537C3.75301 9.39537 4.08167 9.33754 4.36943 9.22187C4.66001 9.10338 4.88852 8.93976 5.05497 8.73099C5.22141 8.51941 5.30464 8.27256 5.30464 7.99045C5.30464 7.73372 5.23129 7.52355 5.08459 7.35992C4.94071 7.1963 4.74464 7.06088 4.49638 6.95368C4.25094 6.84647 3.97306 6.75197 3.66274 6.67015L2.63866 6.39086C1.94466 6.20184 1.39454 5.92396 0.988299 5.55722C0.584876 5.19047 0.383165 4.70523 0.383165 4.10151C0.383165 3.60217 0.518579 3.1663 0.789409 2.79391C1.06024 2.42152 1.42699 2.13236 1.88965 1.92641C2.35232 1.71765 2.87423 1.61327 3.45538 1.61327C4.04218 1.61327 4.55986 1.71624 5.00842 1.92218C5.4598 2.12812 5.81526 2.41165 6.07481 2.77275C6.33435 3.13104 6.46977 3.54292 6.48105 4.00841H5.22Z" fill="#F87171"/>
</svg>
