<svg width="33" height="33" viewBox="0 0 33 33" fill="none" xmlns="http://www.w3.org/2000/svg">
<g clip-path="url(#clip0_140_2662)">
<path d="M32.8829 16.5723C32.8829 7.7357 25.7194 0.572266 16.8829 0.572266C8.04631 0.572266 0.882874 7.7357 0.882874 16.5723C0.882874 24.5582 6.73381 31.1776 14.3829 32.3779V21.1973H10.3204V16.5723H14.3829V13.0473C14.3829 9.03727 16.7716 6.82227 20.4263 6.82227C22.1763 6.82227 24.0079 7.13477 24.0079 7.13477V11.0723H21.9904C20.0029 11.0723 19.3829 12.3057 19.3829 13.5723V16.5723H23.8204L23.111 21.1973H19.3829V32.3779C27.0319 31.1776 32.8829 24.5582 32.8829 16.5723Z" fill="#1877F2"/>
<path d="M23.111 21.1973L23.8204 16.5723H19.3829V13.5723C19.3829 12.307 20.0029 11.0723 21.9904 11.0723H24.0079V7.13477C24.0079 7.13477 22.1769 6.82227 20.4263 6.82227C16.7716 6.82227 14.3829 9.03727 14.3829 13.0473V16.5723H10.3204V21.1973H14.3829V32.3779C16.0395 32.6371 17.7263 32.6371 19.3829 32.3779V21.1973H23.111Z" fill="white"/>
</g>
<defs>
<clipPath id="clip0_140_2662">
<rect width="32" height="32" fill="white" transform="translate(0.882874 0.572266)"/>
</clipPath>
</defs>
</svg>
