<svg width="26" height="23" viewBox="0 0 26 23" fill="none" xmlns="http://www.w3.org/2000/svg">
<path d="M14.2983 20.0847L13.1388 18.9328C13.5656 18.6119 14.0123 18.3403 14.3765 17.9907C17.2702 15.222 20.1667 12.456 23.0276 9.65581C25.6353 7.10379 24.4588 2.98299 20.8837 2.13689C19.2775 1.75566 17.7994 2.12455 16.6158 3.25314C12.2274 7.45119 7.85421 11.6639 3.49619 15.8912C2.21582 17.1254 2.22578 18.9533 3.45352 20.1285C4.68125 21.3038 6.58332 21.2942 7.85516 20.0764C11.0675 17.001 14.2689 13.9151 17.4594 10.8187C18.2191 10.0837 18.2717 9.19368 17.6287 8.58207C16.96 7.94578 16.0296 8.0116 15.2458 8.76308C13.365 10.5686 11.4876 12.3779 9.61353 14.1908C9.39729 14.3992 9.20951 14.6351 9.01034 14.8558L7.821 13.7684L13.4447 8.39557C13.7648 8.08977 14.0749 7.77436 14.4064 7.4809C15.6996 6.33586 17.549 6.36466 18.7568 7.53987C19.9646 8.71509 19.9461 10.5252 18.7085 11.7265C15.8632 14.5007 12.9866 17.2543 10.1228 20.0161C9.68609 20.4357 9.2593 20.8649 8.8069 21.2667C7.92992 22.0732 6.75789 22.5131 5.54604 22.4905C4.3342 22.4679 3.18069 21.9846 2.33674 21.1461C1.9117 20.7365 1.57454 20.2503 1.34451 19.7151C1.11447 19.1799 0.996063 18.6063 0.996063 18.027C0.996063 17.4477 1.11447 16.8741 1.34451 16.3389C1.57454 15.8037 1.9117 15.3175 2.33674 14.9079C4.60442 12.6672 6.92332 10.4745 9.21946 8.26118C11.2472 6.30752 13.2754 4.35294 15.3041 2.39744C17.1535 0.614734 19.3629 0.0387794 21.824 0.851969C24.2567 1.65556 25.6481 3.39713 25.9497 5.87235C26.1616 7.62627 25.6324 9.21425 24.3606 10.4676C21.1284 13.6504 17.8364 16.7757 14.5657 19.9297C14.4813 19.9886 14.3918 20.0404 14.2983 20.0847Z" fill="#3B40BE"/>
</svg>
