<svg width="33" height="33" viewBox="0 0 33 33" fill="none" xmlns="http://www.w3.org/2000/svg">
<g clip-path="url(#clip0_140_2663)">
<path d="M32.0669 16.9406C32.0669 15.853 31.9788 14.7595 31.7906 13.6895H16.6989V19.8508H25.3412C24.9826 21.8379 23.8303 23.5958 22.143 24.7128V28.7106H27.299C30.3267 25.9239 32.0669 21.8085 32.0669 16.9406Z" fill="#4285F4"/>
<path d="M16.6989 32.5737C21.0141 32.5737 24.6533 31.1568 27.3048 28.7111L22.1488 24.7133C20.7143 25.6893 18.8624 26.2419 16.7048 26.2419C12.5306 26.2419 8.99136 23.4258 7.72147 19.6396H2.40088V23.7609C5.11703 29.1638 10.6493 32.5737 16.6989 32.5737Z" fill="#34A853"/>
<path d="M7.71563 19.6389C7.04541 17.6517 7.04541 15.5 7.71563 13.5129V9.3916H2.40092C0.131579 13.9126 0.131579 19.2391 2.40092 23.7601L7.71563 19.6389Z" fill="#FBBC04"/>
<path d="M16.6989 6.90515C18.98 6.86987 21.1846 7.72822 22.8367 9.30382L27.4047 4.73575C24.5122 2.01961 20.6732 0.526311 16.6989 0.573344C10.6493 0.573344 5.11703 3.98323 2.40088 9.39201L7.7156 13.5133C8.9796 9.72124 12.5247 6.90515 16.6989 6.90515Z" fill="#EA4335"/>
</g>
<defs>
<clipPath id="clip0_140_2663">
<rect width="32" height="32" fill="white" transform="translate(0.378906 0.572266)"/>
</clipPath>
</defs>
</svg>
