<svg width="18" height="18" viewBox="0 0 18 18" fill="none" xmlns="http://www.w3.org/2000/svg">
<g clip-path="url(#clip0_76_885)">
<path d="M8.76866 0.378677C10.4499 0.376073 12.0941 0.872088 13.4934 1.804C14.8927 2.7359 15.9842 4.06184 16.6299 5.61413C17.2756 7.16641 17.4465 8.87531 17.1209 10.5247C16.7954 12.1741 15.988 13.6899 14.8009 14.8804C13.6138 16.0709 12.1003 16.8827 10.4519 17.213C8.80342 17.5433 7.09403 17.3774 5.5399 16.7361C3.98576 16.0949 2.65669 15.0072 1.72075 13.6106C0.784821 12.214 0.284071 10.5712 0.281835 8.88997C0.276495 7.77282 0.492188 6.66564 0.916498 5.63219C1.34081 4.59874 1.96535 3.65943 2.75417 2.86834C3.54299 2.07725 4.48049 1.45 5.51272 1.02272C6.54494 0.595435 7.65149 0.376554 8.76866 0.378677ZM16.2446 8.87397C16.2437 7.39745 15.8048 5.95439 14.9834 4.72739C14.1621 3.5004 12.9953 2.54462 11.6305 1.981C10.2658 1.41738 8.76458 1.27126 7.31679 1.56112C5.869 1.85098 4.53973 2.56379 3.49719 3.60937C2.45465 4.65494 1.74569 5.98628 1.46004 7.4349C1.17438 8.88353 1.32486 10.3843 1.89244 11.7474C2.46002 13.1105 3.41918 14.2746 4.64855 15.0923C5.87793 15.9101 7.32226 16.3448 8.79878 16.3415C9.77861 16.3422 10.749 16.1494 11.6541 15.7741C12.5592 15.3989 13.3813 14.8485 14.0731 14.1546C14.765 13.4608 15.3129 12.6371 15.6856 11.7309C16.0582 10.8247 16.2482 9.8538 16.2446 8.87397Z" fill="white"/>
<path d="M8.04539 11.0388H5.23685V10.0034H7.86468C7.51455 9.41235 7.21996 8.89092 6.89242 8.38926C6.83783 8.30644 6.643 8.29044 6.51594 8.28856C5.97098 8.27726 5.42697 8.28385 4.86131 8.28385V7.22123H6.22511L4.19775 3.73878C4.76248 3.73878 5.24437 3.70866 5.7178 3.75666C5.86839 3.77172 6.04346 3.97126 6.13005 4.12844C7.01007 5.72849 7.87409 7.33888 8.77953 9.01517C9.27272 8.10596 9.73767 7.24759 10.2036 6.39015C10.6299 5.60707 11.0431 4.81646 11.4958 4.04938C11.5544 3.96843 11.6288 3.90023 11.7146 3.84894C11.8004 3.79765 11.8956 3.76433 11.9947 3.75102C12.4135 3.70772 12.8418 3.73784 13.3745 3.73784L11.3443 7.2137H12.6479V8.28667C12.1076 8.28667 11.5777 8.2622 11.0525 8.29985C10.8529 8.32553 10.6714 8.42863 10.5471 8.58692C10.2525 9.00763 10.0087 9.46412 9.70003 9.98084H12.4145V11.0265H9.53626V14.6774H8.04539V11.0388Z" fill="white"/>
</g>
<defs>
<clipPath id="clip0_76_885">
<rect width="17" height="17" fill="white" transform="translate(0.282227 0.378693)"/>
</clipPath>
</defs>
</svg>
