<svg width="11" height="12" viewBox="0 0 11 12" fill="none" xmlns="http://www.w3.org/2000/svg">
<path d="M10.375 5.64404C10.375 2.88262 8.13642 0.644043 5.375 0.644043C2.61358 0.644043 0.375 2.88262 0.375 5.64404C0.375 8.40547 2.61358 10.644 5.375 10.644C8.13642 10.644 10.375 8.40547 10.375 5.64404Z" stroke="#F87171" stroke-width="0.75"/>
<path d="M3.13139 4.07726V7.21078H2.56375V4.62961H2.54539L1.8125 5.0978V4.57759L2.59129 4.07726H3.13139Z" fill="#F87171"/>
<path d="M5.04088 7.25362C4.81341 7.25362 4.61145 7.21537 4.43499 7.13887C4.25954 7.06237 4.12184 6.95782 4.02187 6.82521C3.92293 6.69159 3.87397 6.54012 3.87499 6.37079C3.87397 6.23921 3.90253 6.11834 3.96067 6.00817C4.01882 5.89801 4.09736 5.80621 4.1963 5.73277C4.29626 5.6583 4.40744 5.61087 4.52985 5.59047V5.56905C4.36868 5.53335 4.23812 5.45124 4.13816 5.32272C4.03922 5.19317 3.99025 5.04374 3.99127 4.87441C3.99025 4.71325 4.03514 4.56943 4.12592 4.44294C4.2167 4.31646 4.34114 4.21701 4.49925 4.14459C4.65735 4.07114 4.8379 4.03442 5.04088 4.03442C5.24183 4.03442 5.42084 4.07114 5.57792 4.14459C5.73603 4.21701 5.86047 4.31646 5.95125 4.44294C6.04306 4.56943 6.08896 4.71325 6.08896 4.87441C6.08896 5.04374 6.03847 5.19317 5.93748 5.32272C5.83752 5.45124 5.70849 5.53335 5.55038 5.56905V5.59047C5.67279 5.61087 5.78295 5.6583 5.88087 5.73277C5.97981 5.80621 6.05836 5.89801 6.1165 6.00817C6.17566 6.11834 6.20524 6.23921 6.20524 6.37079C6.20524 6.54012 6.15526 6.69159 6.0553 6.82521C5.95533 6.95782 5.81763 7.06237 5.64219 7.13887C5.46776 7.21537 5.26733 7.25362 5.04088 7.25362ZM5.04088 6.81603C5.15818 6.81603 5.26019 6.79614 5.34689 6.75636C5.43359 6.71556 5.50091 6.65844 5.54885 6.585C5.59679 6.51156 5.62127 6.42689 5.62229 6.33101C5.62127 6.23105 5.59526 6.14282 5.54426 6.06631C5.49428 5.98879 5.42543 5.9281 5.33771 5.88424C5.25101 5.84038 5.15206 5.81845 5.04088 5.81845C4.92868 5.81845 4.82872 5.84038 4.74099 5.88424C4.65327 5.9281 4.58391 5.98879 4.53291 6.06631C4.48293 6.14282 4.45845 6.23105 4.45947 6.33101C4.45845 6.42689 4.48191 6.51156 4.52985 6.585C4.57779 6.65742 4.64511 6.71403 4.73181 6.75483C4.81954 6.79563 4.92256 6.81603 5.04088 6.81603ZM5.04088 5.38851C5.13676 5.38851 5.22143 5.36913 5.29487 5.33037C5.36933 5.29161 5.42798 5.23754 5.47082 5.16818C5.51366 5.09882 5.53559 5.01875 5.53661 4.92797C5.53559 4.8382 5.51417 4.75966 5.47235 4.69234C5.43053 4.624 5.37239 4.57147 5.29793 4.53475C5.22346 4.49701 5.13778 4.47813 5.04088 4.47813C4.94194 4.47813 4.85473 4.49701 4.77924 4.53475C4.70478 4.57147 4.64664 4.624 4.60482 4.69234C4.56402 4.75966 4.54413 4.8382 4.54515 4.92797C4.54413 5.01875 4.56453 5.09882 4.60635 5.16818C4.64919 5.23652 4.70784 5.29059 4.7823 5.33037C4.85779 5.36913 4.94398 5.38851 5.04088 5.38851Z" fill="#F87171"/>
<path d="M7.6385 6.70893V4.59136H8.11894V6.70893H7.6385ZM6.81993 5.89036V5.40993H8.93751V5.89036H6.81993Z" fill="#F87171"/>
</svg>
