<svg width="45" height="45" viewBox="0 0 45 45" fill="none" xmlns="http://www.w3.org/2000/svg">
<path d="M20.2905 10.5873C20.5458 9.28624 20.531 7.56557 20.4603 6.23358C20.4021 5.1346 21.7031 4.17065 23.5364 4.17065C25.3697 4.17065 25.9886 4.55127 26.2639 5.17831C26.839 6.48845 27.7217 8.8181 27.6238 10.5873C27.5165 12.5265 26.1665 14.9591 25.3988 16.1981C25.1855 16.5424 25.4319 17.004 25.8369 17.004H36.8645C39.1903 17.004 40.9285 19.1416 40.4541 21.4185L37.3986 36.0852C37.0443 37.7855 35.5458 39.004 33.809 39.004H17.5405C15.5154 39.004 13.8738 37.3624 13.8738 35.3373V20.8452C13.8738 20.7322 13.9084 20.6272 13.9783 20.5383C14.77 19.5313 19.8068 13.0515 20.2905 10.5873Z" stroke="white" stroke-width="2.5" stroke-linecap="round" stroke-linejoin="round"/>
<path d="M2.87381 37.004V22.6707C2.87381 21.5661 3.76924 20.6707 4.87381 20.6707H11.8738C12.9784 20.6707 13.8738 21.5661 13.8738 22.6707V37.004C13.8738 38.1086 12.9784 39.004 11.8738 39.004H4.87381C3.76924 39.004 2.87381 38.1086 2.87381 37.004Z" stroke="white" stroke-width="2.5"/>
</svg>
