<svg width="14" height="14" viewBox="0 0 14 14" fill="none" xmlns="http://www.w3.org/2000/svg">
<g clip-path="url(#clip0_142_2715)">
<path d="M6.88506 0.931641C9.10153 0.931641 11.1605 2.70657 11.1605 4.94578C11.1605 6.42587 10.6605 7.47229 9.82249 8.69231C9.00577 9.88132 7.99166 11.0096 7.39201 11.6437C7.11117 11.9407 6.64641 11.9407 6.36557 11.6437C5.76592 11.0096 4.75181 9.88132 3.93509 8.69231C3.09708 7.47229 2.59705 6.42587 2.59705 4.94578C2.59705 2.70657 4.656 0.931641 6.87247 0.931641" stroke="#767676" stroke-linecap="round"/>
<path d="M8.48444 5.18194C8.48444 6.07743 7.7679 6.81802 6.88132 6.81802C5.99473 6.81802 5.27313 6.07743 5.27313 5.18194C5.27313 4.28644 5.99473 3.60735 6.88132 3.60735C7.7679 3.60735 8.48444 4.28644 8.48444 5.18194Z" stroke="#767676"/>
</g>
<defs>
<clipPath id="clip0_142_2715">
<rect width="13" height="13" fill="white" transform="translate(0.378906 0.0517578)"/>
</clipPath>
</defs>
</svg>
