<svg width="13" height="14" viewBox="0 0 13 14" fill="none" xmlns="http://www.w3.org/2000/svg">
<path fill-rule="evenodd" clip-rule="evenodd" d="M6.3894 1.97342C4.08488 1.96493 2.20255 3.9512 2.12731 6.43746L2.125 6.59178C2.1633 7.81043 2.54604 8.9721 3.22014 9.92919L3.37846 10.153C4.0219 11.0393 4.78656 11.8173 5.64514 12.4585L5.85186 12.6092L5.88202 12.6349C6.1763 12.864 6.57363 12.864 6.86791 12.6349L6.89302 12.6125C7.57428 12.1339 8.2025 11.5715 8.76523 10.9365C9.9093 9.62454 10.5989 8.15448 10.6249 6.6615L10.625 6.60607C10.6328 4.10318 8.80492 2.05771 6.51698 1.97593L6.3894 1.97342ZM6.38683 2.79533C8.27609 2.80232 9.81 4.43763 9.86696 6.47413L9.86857 6.6537C9.84668 7.90539 9.24172 9.19511 8.2183 10.3687C7.69647 10.9576 7.11137 11.481 6.47678 11.9262L6.43449 11.9606C6.40031 11.9928 6.34962 11.9928 6.31544 11.9606L6.27433 11.927C5.32899 11.2584 4.49928 10.4142 3.82318 9.43305C3.27859 8.6598 2.95588 7.73529 2.89092 6.77085L2.88138 6.57746C2.88779 4.52582 4.39266 2.85898 6.26673 2.79709L6.38683 2.79533ZM6.37496 4.89909C5.48077 4.89909 4.75588 5.68681 4.75588 6.65851C4.75588 7.63021 5.48077 8.41793 6.37496 8.41793C7.26916 8.41793 7.99405 7.63021 7.99405 6.65851C7.99405 5.68681 7.26916 4.89909 6.37496 4.89909ZM6.37496 5.72103C6.85142 5.72103 7.23767 6.14075 7.23767 6.65851C7.23767 7.17627 6.85142 7.596 6.37496 7.596C5.8985 7.596 5.51226 7.17627 5.51226 6.65851C5.51226 6.14075 5.8985 5.72103 6.37496 5.72103Z" fill="#F87171"/>
</svg>
