<svg width="13" height="14" viewBox="0 0 13 14" fill="none" xmlns="http://www.w3.org/2000/svg">
<path fill-rule="evenodd" clip-rule="evenodd" d="M6.37715 1.51147C4.91013 1.51147 3.72089 2.80532 3.72089 4.40136C3.72089 5.9974 4.91013 7.29125 6.37715 7.29125C7.84416 7.29125 9.03341 5.9974 9.03341 4.40136C9.03341 2.80532 7.84416 1.51147 6.37715 1.51147ZM6.37715 2.29563C7.44609 2.29563 8.31265 3.2384 8.31265 4.40136C8.31265 5.56432 7.44609 6.50709 6.37715 6.50709C5.3082 6.50709 4.44165 5.56432 4.44165 4.40136C4.44165 3.2384 5.3082 2.29563 6.37715 2.29563ZM5.29002 8.45612C4.90117 8.48536 4.5081 8.5455 4.1204 8.63551C3.37209 8.8025 2.77343 9.13614 2.51862 9.69057C2.42251 9.9074 2.37419 10.1396 2.37501 10.3746C2.37472 10.608 2.42265 10.8404 2.51531 11.0531C2.75997 11.6011 3.2889 11.9113 4.00312 12.0832L4.13106 12.1121C4.50824 12.2043 4.90142 12.2664 5.29723 12.2955C5.33094 12.3062 5.41129 12.3162 5.49898 12.321L5.57111 12.324C5.6082 12.3249 5.65029 12.3251 5.713 12.3251C6.28192 12.359 6.87171 12.3492 7.45876 12.295C7.7716 12.2718 8.08655 12.2275 8.39887 12.1626L8.63253 12.11C9.40378 11.9452 9.98129 11.6318 10.2343 11.0537C10.4219 10.6245 10.4219 10.1265 10.2344 9.69754C9.98201 9.12095 9.41185 8.8101 8.62668 8.63488C8.31863 8.56363 8.0056 8.51091 7.69034 8.47725L7.45985 8.45612C6.73797 8.38713 6.01191 8.38713 5.29002 8.45612ZM7.39677 9.23727L7.40311 9.23781C7.76493 9.2654 8.12454 9.32042 8.47933 9.40247C9.06254 9.53263 9.45833 9.74841 9.58354 10.0345C9.67782 10.2502 9.67782 10.5009 9.58345 10.7168C9.46646 10.9841 9.11099 11.1906 8.59723 11.3168L8.48474 11.3426C8.12298 11.43 7.76456 11.4864 7.40377 11.5132C6.84396 11.5648 6.28746 11.5741 5.73237 11.5416L5.53557 11.5379C5.48094 11.5349 5.4349 11.5292 5.39223 11.5199C5.05435 11.4923 4.75032 11.4486 4.45512 11.3852L4.27887 11.3447C3.69384 11.2205 3.29457 11.0038 3.16511 10.7138C3.11981 10.6098 3.09561 10.4925 3.09576 10.3737C3.09535 10.2555 3.11923 10.1408 3.16558 10.0362C3.29145 9.76236 3.71459 9.52655 4.26802 9.40304C4.62536 9.32009 4.9848 9.26509 5.34646 9.23783C6.03301 9.17229 6.71685 9.17229 7.39677 9.23727Z" fill="#F87171"/>
</svg>
