<svg width="19" height="19" viewBox="0 0 19 19" fill="none" xmlns="http://www.w3.org/2000/svg">
<path fill-rule="evenodd" clip-rule="evenodd" d="M9.46615 3.86348L9.2515 3.85986C6.14581 3.85986 3.34695 6.05217 1.79569 9.63924C1.73477 9.7801 1.73477 9.93963 1.79569 10.0805L1.90318 10.3225C3.43479 13.6797 6.08158 15.7581 9.03385 15.8562L9.2485 15.8599C12.3542 15.8599 15.1531 13.6676 16.7043 10.0805C16.766 9.93785 16.7652 9.77616 16.7021 9.63414L16.5976 9.39909C15.0623 6.03555 12.4144 3.96146 9.46615 3.86348ZM9.25675 4.97693L9.43596 4.98079L9.63621 4.9912C12.0341 5.16099 14.2394 6.93901 15.5717 9.85919L15.5648 9.87721C14.199 12.8602 11.9177 14.6488 9.44417 14.7386L9.253 14.7415L9.0602 14.7389L8.86046 14.7285C6.53704 14.5639 4.39478 12.8857 3.05436 10.1296L2.9275 9.85919L3.04493 9.60951C4.45838 6.68972 6.76861 4.97756 9.25675 4.97693ZM9.24962 6.94496C7.62932 6.94496 6.31637 8.24971 6.31637 9.86001C6.31637 11.4697 7.62946 12.7743 9.24962 12.7743C10.8699 12.7743 12.1836 11.4696 12.1836 9.86001C12.1836 8.2498 10.87 6.94496 9.24962 6.94496ZM9.24963 8.06269C10.2488 8.06269 11.0586 8.86716 11.0586 9.86001C11.0586 10.8522 10.2487 11.6566 9.24963 11.6566C8.25079 11.6566 7.44137 10.8524 7.44137 9.86001C7.44137 8.86697 8.2507 8.06269 9.24963 8.06269Z" fill="#3D3D3D"/>
</svg>
