<svg width="13" height="14" viewBox="0 0 13 14" fill="none" xmlns="http://www.w3.org/2000/svg">
<path fill-rule="evenodd" clip-rule="evenodd" d="M2.125 5.25636C2.125 4.56736 2.645 4.0062 3.2835 4.0062H9.4665C10.1025 4.0062 10.62 4.56736 10.62 5.25636V6.91224C9.7985 7.46528 8.8515 7.85257 7.8545 8.0427C7.5805 7.44307 7.0105 7.04982 6.37 7.04982C5.735 7.04982 5.1625 7.44145 4.8805 8.03782C3.8895 7.84878 2.946 7.46311 2.125 6.91224V5.25636ZM5.727 2.60815H7.018C7.354 2.60815 7.6355 2.85786 7.719 3.1937H5.0255C5.1095 2.85786 5.3905 2.60815 5.727 2.60815ZM5.067 8.89203C5.257 8.92074 5.4305 8.79399 5.4805 8.59682C5.592 8.15699 5.9495 7.86232 6.37 7.86232C6.786 7.86232 7.147 8.16349 7.248 8.59465C7.291 8.77665 7.442 8.90124 7.6115 8.90124C7.6285 8.90124 7.646 8.90015 7.663 8.89745C8.9475 8.70461 10.171 8.21224 11.202 7.4734C11.307 7.39757 11.37 7.27082 11.37 7.13432V5.25636C11.37 4.11886 10.516 3.1937 9.4665 3.1937H8.478C8.3845 2.40774 7.769 1.79565 7.018 1.79565H5.727C4.976 1.79565 4.361 2.4072 4.267 3.1937H3.2835C2.231 3.1937 1.375 4.11886 1.375 5.25636V7.13432C1.375 7.27082 1.438 7.39811 1.5435 7.4734C2.573 8.20899 3.7915 8.6992 5.067 8.89203ZM5.99755 9.04537V9.74629C5.99755 9.97054 6.16555 10.1525 6.37255 10.1525C6.57955 10.1525 6.74755 9.97054 6.74755 9.74629V9.04537C6.74755 8.82113 6.57955 8.63912 6.37255 8.63912C6.16555 8.63912 5.99755 8.82113 5.99755 9.04537ZM10.6293 9.06314C10.6443 8.85514 10.8008 8.68939 10.9973 8.68939C11.2038 8.68939 11.3713 8.87085 11.3713 9.09456C11.3713 9.09802 11.3653 9.18144 11.3565 9.30525C11.3349 9.60717 11.2961 10.1493 11.2848 10.3583C11.2563 10.8664 11.0743 11.3847 10.7978 11.7455C10.4128 12.2481 9.9223 12.4832 9.2553 12.4848C8.9458 12.4854 7.6668 12.4859 6.3873 12.4859C5.1083 12.4859 3.8288 12.4854 3.5198 12.4848C2.8523 12.4832 2.3618 12.2481 1.9768 11.7449C1.7008 11.3847 1.5183 10.8664 1.4903 10.3583C1.47877 10.1523 1.44086 9.62284 1.41908 9.31856C1.40969 9.18745 1.4033 9.09815 1.4033 9.09456C1.4033 8.87085 1.5708 8.68939 1.7773 8.68939C1.9738 8.68939 2.1303 8.85514 2.1453 9.06314C2.1453 9.06314 2.2223 10.0105 2.2388 10.3095C2.2573 10.6405 2.3813 11.0007 2.5543 11.226C2.7993 11.5461 3.0703 11.6713 3.5208 11.6723C4.1388 11.6734 8.6353 11.6734 9.2538 11.6723C9.7048 11.6713 9.9758 11.5461 10.2203 11.2266C10.3938 11.0007 10.5178 10.6405 10.5363 10.3095C10.5523 10.0105 10.6293 9.06314 10.6293 9.06314Z" fill="#F87171"/>
</svg>
