<svg width="33" height="33" viewBox="0 0 33 33" fill="none" xmlns="http://www.w3.org/2000/svg">
<g clip-path="url(#clip0_140_2664)">
<path d="M31.7495 8.8198C31.5686 8.13902 31.212 7.5177 30.7155 7.01801C30.219 6.51833 29.6 6.15781 28.9204 5.97253C26.4186 5.2998 16.4186 5.2998 16.4186 5.2998C16.4186 5.2998 6.41858 5.2998 3.91676 5.97253C3.23715 6.15781 2.61812 6.51833 2.12163 7.01801C1.62513 7.5177 1.26859 8.13902 1.08767 8.8198C0.418579 11.3325 0.418579 16.5725 0.418579 16.5725C0.418579 16.5725 0.418579 21.8125 1.08767 24.3253C1.26859 25.006 1.62513 25.6274 2.12163 26.127C2.61812 26.6267 3.23715 26.9873 3.91676 27.1725C6.41858 27.8453 16.4186 27.8453 16.4186 27.8453C16.4186 27.8453 26.4186 27.8453 28.9204 27.1725C29.6 26.9873 30.219 26.6267 30.7155 26.127C31.212 25.6274 31.5686 25.006 31.7495 24.3253C32.4186 21.8125 32.4186 16.5725 32.4186 16.5725C32.4186 16.5725 32.4186 11.3325 31.7495 8.8198Z" fill="#FF0302"/>
<path d="M13.1459 21.3308V11.8145L21.5095 16.5726L13.1459 21.3308Z" fill="#FEFEFE"/>
</g>
<defs>
<clipPath id="clip0_140_2664">
<rect width="32" height="32" fill="white" transform="translate(0.386841 0.572266)"/>
</clipPath>
</defs>
</svg>
